PathFileType	4	(X/Y/Z)	C:\Users\°ÂÌØÂü\Desktop\20210112\bx_n_0_1802-Unnamed.trc
DataRate	CameraRate	NumFrames	NumMarkers	Units	OrigDataRate	OrigDataStartFrame	OrigNumFrames
50.00	50.00	       5	0	mm	50.00	213	       425
Frame#	Time	
		

213	4.240				-780.66675	239.70500	851.84259	-808.29401	291.55389	727.31506	-674.79291	-17.98205	764.70117	-665.78931	245.02209	756.34283	-694.69019	295.28757	650.28333	-619.23871	273.92767	574.21313	-973.68945	93.83524	900.99304	-543.12823	2.22745	476.99045	-587.46234	277.33658	533.31940	-533.30035	233.68350	490.82355	-640.37311	277.51688	472.69867	-704.13483	74.02387	209.08719	-649.91779	-68.00137	162.44098	-540.71088	173.60316	550.83801	-754.16229	224.32729	206.31720	-609.91687	-74.98582	159.03633	-883.02490	296.16571	145.13293	-670.42841	55.18757	155.83441	-597.34607	23.05711	167.99432	-552.72815	-35.41368	167.51289	-517.92987	-72.78322	143.12181	-587.49451	215.74684	176.24095	-655.05933	293.69534	154.71188	-618.51184	302.27689	156.15349	-551.68799	252.11661	165.30415	-528.13885	304.07614	146.58961	-430.16254	117.90230	1516.92175	-546.95270	288.87704	1236.61060	-787.32220	171.26100	189.87090	-528.85602	-62.88283	1236.33081	-788.25543	47.26876	178.25500				-651.99463	-49.99746	465.81155	-747.84705	-13.40671	208.92751	-876.03687	-78.90970	141.42259	-786.14655	-80.80864	747.06030	-587.37183	-46.59594	529.32935	-672.20648	168.21150	156.21304	-580.98584	106.84961	1030.38232	-561.72620	64.75980	550.03638	-703.87848	-73.75137	666.32239	-599.62988	-46.87426	568.97137	-696.94916	150.99771	209.79730	
214	4.260				-782.10065	240.12505	845.51660	-809.89514	292.24017	724.10999	-676.41071	-16.55230	762.25629	-667.33899	245.17615	754.26257	-695.14532	295.58978	647.49512	-618.37744	275.14059	573.57208	-975.32385	93.96903	896.28998	-541.51959	3.20990	476.10953	-585.76434	277.99072	532.35333	-532.23291	234.30777	489.64038	-639.71008	278.58728	472.43231	-703.72729	74.45856	208.39389	-649.93213	-67.57896	162.69875	-539.58228	173.89766	550.38245	-753.97443	224.13647	206.36177	-609.77795	-74.54988	159.41191	-882.90997	296.18536	145.09734	-670.31580	55.12242	155.37604	-597.33850	23.24319	167.57925	-552.93494	-35.48630	167.34335	-517.82251	-72.76317	143.29663	-587.42950	215.65199	176.04097	-655.05450	293.65018	154.79164	-618.53442	302.16690	156.05507	-551.52838	251.90874	165.34673	-528.27087	304.22754	146.42125	-426.21420	119.36277	1507.39270	-544.12262	290.40109	1227.77856	-787.19543	171.15427	189.84680	-526.23517	-61.98565	1227.99988	-788.28387	47.57268	178.25394				-650.78491	-50.07906	466.24094	-748.29608	-12.67103	208.44733	-875.83667	-79.02631	141.50247	-787.20490	-80.41148	743.57416	-585.85284	-46.03909	528.81494	-672.05750	168.04510	156.17429	-580.69995	107.46303	1021.99896	-561.26300	65.38892	549.33350	-704.02344	-72.90582	664.13751	-598.45624	-46.62215	567.99310	-696.74414	151.04546	209.36711	
215	4.280							-810.92163	292.70108	719.95520	-678.08124	-15.28852	760.35901	-669.44037	245.11389	752.11041	-695.69934	296.08810	644.78168	-617.85846	275.26288	571.64655	-977.04395	94.70897	891.19873	-540.51495	4.54605	475.69623	-584.86285	278.93546	532.18695	-531.44904	234.76912	489.53595	-638.60516	278.68143	471.36484	-703.89435	75.80962	208.30428	-649.50281	-67.34101	162.99660	-538.97174	174.14659	549.72858	-753.96844	224.04895	206.40852	-609.69617	-74.62376	160.07625	-882.78448	296.19104	144.83150	-670.32336	55.21965	155.23787	-597.23920	23.36438	167.32314	-552.62146	-34.99006	167.34447	-517.80359	-72.74232	143.31570	-587.45313	215.72652	175.86635	-655.05933	293.69534	154.71188	-618.57104	302.14758	156.27299	-551.58228	252.06857	165.26302	-528.23218	304.14554	146.48161	-423.23376	119.80419	1497.77161	-542.17310	290.35049	1218.66870	-787.23560	171.04793	189.90157	-524.30994	-60.39575	1219.05615	-788.37610	47.67409	178.27731				-649.54431	-49.23793	465.61484	-747.55762	-12.30472	208.46034	-875.60840	-78.80363	141.39221	-788.45349	-80.06363	740.14337	-584.54303	-45.19807	528.10773	-671.26257	167.63882	155.79543	-579.99408	107.73405	1013.58276	-560.41846	66.66448	549.28937	-704.10565	-72.29640	661.97498	-597.49280	-45.48223	567.40955	-696.70917	150.90015	208.83298	
216	4.300							-812.00189	293.30045	716.37866	-680.31116	-14.05405	758.34906	-670.74408	245.60165	750.09167	-695.56842	296.79535	643.24231	-616.93066	275.89398	570.88696	-978.91516	95.37193	886.40857	-539.89874	5.24229	475.06802	-584.26514	279.08957	530.60565	-530.33740	234.84126	489.04224	-637.62231	279.10950	471.34772	-703.90759	76.11426	208.06093	-649.56165	-66.75762	163.18164	-538.05225	174.70970	549.21045	-754.13287	224.38727	206.78751	-609.51648	-73.94669	160.72128	-882.59772	296.18066	144.91786	-670.15576	55.15948	154.97739	-597.35071	23.50789	166.99574	-553.06226	-35.06038	167.59624	-517.83069	-72.68755	143.39528	-587.30475	215.64194	175.94688	-654.93793	293.59607	154.98195	-618.58862	302.03183	156.16180	-551.61200	252.16615	165.13191	-528.12793	304.02591	146.71939	-419.89883	121.28149	1488.51514	-539.89819	290.49368	1209.75598	-787.36499	170.81123	190.08069	-522.45428	-59.64175	1210.43665	-788.30896	47.98176	178.15556				-648.89252	-48.48141	464.92496	-747.33771	-11.98328	208.25449	-876.45026	-78.67658	141.37486	-789.97986	-79.49294	737.60449	-584.13049	-44.50023	527.78326	-671.86578	167.93716	155.63690	-579.49084	108.38358	1005.43170	-559.81708	67.62138	548.97968	-704.59717	-72.00747	660.41626	-596.92853	-45.10769	566.69617	-696.84296	150.63681	208.95068	
217	4.320							-812.91992	293.98792	713.11407	-681.96295	-12.83540	756.68329	-671.77130	245.83441	748.20923	-695.44885	296.84174	641.19385	-615.77087	276.69318	570.09406	-980.32629	96.21930	881.80603	-539.21307	5.95153	474.74799	-582.94519	279.50912	530.65973	-529.41174	234.47885	487.94620	-636.60681	279.68951	470.76489	-704.03607	76.31134	208.25142	-649.40680	-66.57407	163.55795	-537.47137	174.66071	548.33014	-754.20276	224.18857	206.84309	-609.74591	-73.58045	161.63223	-882.70142	296.14493	144.78899	-670.38165	55.37110	154.53481	-597.43250	23.56032	166.89301	-552.85120	-34.64326	167.79643	-517.89252	-72.89330	143.26649	-587.26105	215.54968	175.86632	-654.99005	293.64590	155.12524	-618.43524	302.16577	156.08813	-551.38635	252.06071	165.20171	-528.14569	304.17987	146.55627	-417.10541	121.86109	1479.61633	-537.79718	291.27066	1201.31970	-787.22772	170.95718	190.34132	-520.07941	-58.45962	1201.90442	-788.39417	48.06993	178.32536				-648.12000	-47.91851	464.65961	-746.35028	-12.44505	209.77489	-876.58063	-78.41639	141.33990	-791.33490	-78.46880	734.45294	-583.16589	-44.01621	527.40906	-671.98950	167.80214	155.34325	-578.66705	108.55863	997.36182	-559.71045	67.83180	548.00195	-705.10742	-71.33610	658.47900	-596.18878	-44.48882	566.02490	-695.68420	151.03429	208.83653	
